<svg xmlns="http://www.w3.org/2000/svg" viewBox="0 0 512 512" role="img" aria-label="謝謝你，菜！">
  <rect width="512" height="512" rx="112" fill="#183427"/>
  <rect x="64" y="64" width="384" height="384" rx="88" fill="#fff7df"/>
  <path d="M256 112c47 0 90 20 119 52-50-3-93 10-119 38-26-28-69-41-119-38 29-32 72-52 119-52Z" fill="#76a667"/>
  <path d="M256 154c-16 53-16 105 0 156 16-51 16-103 0-156Z" fill="#3f7049"/>
  <rect x="136" y="218" width="240" height="174" rx="38" fill="#e7b95c"/>
  <path d="M166 254h180M166 300h180M166 346h180" stroke="#9b672d" stroke-width="18" stroke-linecap="round"/>
  <path d="M202 210c0-30 24-54 54-54s54 24 54 54" fill="none" stroke="#183427" stroke-width="20" stroke-linecap="round"/>
  <text x="256" y="338" text-anchor="middle" font-size="104" font-family="sans-serif" font-weight="900" fill="#183427">菜</text>
</svg>
